<?xml version="1.0" standalone="no"?>
<!DOCTYPE svg PUBLIC "-//W3C//DTD SVG 20010904//EN"
 "http://www.w3.org/TR/2001/REC-SVG-20010904/DTD/svg10.dtd">
<svg version="1.0" xmlns="http://www.w3.org/2000/svg"
 width="500.000000pt" height="500.000000pt" viewBox="0 0 500.000000 500.000000"
 preserveAspectRatio="xMidYMid meet">
<metadata>
Created by potrace 1.11, written by Peter Selinger 2001-2013
</metadata>
<g transform="translate(0.000000,500.000000) scale(0.100000,-0.100000)"
fill="#000000" stroke="none">
<path d="M0 2500 l0 -2500 2500 0 2500 0 0 2500 0 2500 -2500 0 -2500 0 0
-2500z m3437 1259 c406 -115 748 -217 760 -225 35 -22 54 -58 55 -101 0 -36
-640 -2302 -663 -2345 -15 -28 -69 -58 -104 -58 -31 0 -928 251 -921 257 2 3
81 22 175 43 106 24 183 47 200 60 16 11 37 41 47 65 l17 45 -57 263 c-76 346
-72 320 -40 269 31 -51 25 -51 176 24 200 99 323 203 379 323 48 103 16 229
-73 284 -67 41 -138 38 -230 -11 -4 -2 19 63 51 145 83 211 81 189 20 207 -29
9 -56 16 -59 16 -4 0 -22 -81 -40 -180 l-34 -180 -23 42 c-27 47 -44 63 -92
84 -71 32 -161 14 -222 -42 l-26 -24 -65 294 c-59 265 -64 299 -55 338 14 55
11 52 39 34 33 -22 70 -2 82 45 7 29 4 43 -17 84 -45 88 -48 90 -88 70 -19
-10 -43 -26 -55 -36 l-21 -19 -21 94 -21 95 25 88 c14 48 32 97 39 109 16 24
71 53 102 54 12 0 354 -95 760 -211z m-1042 167 c18 -8 41 -25 49 -39 17 -25
536 -2340 536 -2388 0 -33 -38 -90 -70 -106 -28 -13 -1500 -343 -1530 -343
-33 0 -86 31 -104 61 -10 16 -134 557 -277 1202 -229 1033 -259 1176 -250
1208 23 78 -7 68 809 250 411 92 760 167 775 168 15 1 43 -5 62 -13z m205
-526 c0 -5 -4 -10 -10 -10 -5 0 -10 5 -10 10 0 6 5 10 10 10 6 0 10 -4 10 -10z"/>
<path d="M2660 3752 c-25 -37 -46 -73 -48 -79 -6 -22 17 -14 33 11 13 19 21
23 43 17 21 -6 28 -14 30 -39 2 -20 9 -32 18 -32 16 0 19 61 8 144 -9 65 -30
60 -84 -22z m56 -29 c-3 -3 -12 -3 -21 1 -15 5 -14 9 2 37 l18 31 3 -32 c2
-18 1 -34 -2 -37z"/>
<path d="M3544 1643 c-11 -53 -14 -57 -26 -45 -35 35 -98 -3 -98 -59 0 -32 59
-149 75 -149 19 0 100 56 123 85 12 15 22 38 22 50 0 28 -30 55 -59 55 -20 0
-22 4 -16 23 17 56 17 67 1 67 -9 0 -18 -11 -22 -27z"/>
<path d="M3410 1328 c0 -74 12 -147 25 -152 16 -6 119 140 109 156 -5 7 -14 2
-29 -16 -19 -23 -25 -26 -48 -17 -21 8 -27 17 -27 41 0 20 -5 30 -15 30 -11 0
-15 -11 -15 -42z m64 -57 c3 -5 -3 -20 -14 -32 l-19 -24 -1 33 c0 31 21 45 34
23z"/>
<path d="M936 3423 c-4 -38 -9 -80 -12 -95 -4 -20 -2 -28 9 -28 9 0 17 14 21
35 6 31 11 35 36 35 19 0 33 -7 40 -20 9 -17 40 -29 40 -15 0 2 -21 38 -46 80
-60 99 -79 101 -88 8z m53 -2 c11 -20 5 -31 -16 -31 -7 0 -13 11 -13 25 0 29
15 33 29 6z"/>
<path d="M980 3193 c-22 -42 -37 -79 -33 -83 4 -4 36 -28 70 -54 l62 -47 40
79 40 79 -69 51 -69 51 -41 -76z"/>
<path d="M1656 2659 c-65 -121 -116 -222 -114 -223 52 -43 399 -298 402 -295
1 2 55 102 119 222 l115 218 -199 149 c-109 83 -200 150 -202 150 -2 0 -57
-99 -121 -221z"/>
<path d="M2591 1902 l-40 -79 69 -51 69 -51 41 76 c23 41 38 79 33 83 -4 3
-36 28 -70 54 l-62 47 -40 -79z"/>
<path d="M2761 1671 c-6 -11 -11 -27 -11 -35 0 -9 -6 -16 -14 -16 -8 0 -21 -2
-28 -5 -9 -4 -19 4 -26 20 -6 14 -19 25 -28 25 -21 0 -16 -10 40 -98 32 -51
50 -70 61 -66 8 4 15 16 16 28 0 11 3 52 8 89 7 70 0 93 -18 58z m-11 -95 c0
-34 -15 -40 -28 -11 -8 18 -8 25 1 29 23 9 27 6 27 -18z"/>
</g>
</svg>
